# xmcd CD database file
#
# Track frame offsets:
#	150
#	14370
#	31218
#	46508
#	61665
#	77738
#	92558
#	106921
#	119434
#	137765
#	154846
#	172684
#
# Disc length: 2580 seconds
#
# Revision: 1
# Processed by: cddbd v1.5.2PL0 Copyright (c) Steve Scherf et al.
# Submitted via: CDex 1.51
#
DISCID=820a120c
DTITLE=Ty Herndon - House On Fire
DYEAR=2016
DGENRE=Country
TTITLE0=That Kind Of Night
TTITLE1=Sweet Way To Go
TTITLE2=Just Friends
TTITLE3=All Night Tonight
TTITLE4=Blame It On The Mustang
TTITLE5=House On Fire
TTITLE6=Go
TTITLE7=If You
TTITLE8=Stick With What I Know
TTITLE9=Nothing Left To Break
TTITLE10=World I'm Livin' In
TTITLE11=Fighter
EXTD=YEAR: 2016
EXTT0=
EXTT1=
EXTT2=
EXTT3=
EXTT4=
EXTT5=
EXTT6=
EXTT7=
EXTT8=
EXTT9=
EXTT10=
EXTT11=
PLAYORDER=
